<?xml version="1.0" standalone="no"?><!DOCTYPE svg PUBLIC "-//W3C//DTD SVG 1.1//EN" "http://www.w3.org/Graphics/SVG/1.1/DTD/svg11.dtd"><svg t="1582016238096" class="icon" viewBox="0 0 1024 1024" version="1.1" xmlns="http://www.w3.org/2000/svg" p-id="581" width="200" height="200"><path d="M656.66666662 833.3l0-40.2-26.7 0 0 40.2L656.66666662 833.3z m80.4-307.9L737.06666662 445.00000001l-40.2-1e-8 0 80.4 40.2 0z m0-107.1l0-80.4-40.19999999 0-1e-8 80.4 40.2 0z m0-107.20000001l0-80.39999999-40.2 0 0 80.4 40.2-1e-8z m0-107.09999999s0.9-35.3-13.4-53.6c-11.4-14.6-26.8-13.4-26.79999999-13.4l0 67 40.19999999 0z m-133.90000001 656.10000001L603.16666661 96.89999999S632.96666662 30 696.86666662 30c41.4 0 66.9 66.9 66.9 66.9l0 896.99999999c-28.40000001-109.5-160.6-133.8-160.60000001-133.79999998z m415.00000001-575.70000001l0 40.2-66.9 0 0-84.79999999 66.9 44.59999999z m-26.8 200.9l12.7 120.50000001c2.6 22.5-16.9 35.2-16.9 35.19999999l-36 26.5L951.16666662 485.3l40.2 0z m-174 200.7l26.8 1e-8L844.16666662 190.7l-26.8 0L817.36666662 686z m66.9-147.2L884.26666662 217.4l-26.7 0 0 321.3 26.7 0 0 0.1z m40.2-66.99999999L924.46666662 257.60000001 897.66666662 257.6l0 214.2 26.8 1e-8z m13.3-240.90000001L937.76666662 678 790.66666662 806.6 790.66666662 123.8l147.1 107.1z" p-id="582"></path></svg>