<svg t="1582682630923" class="icon" viewBox="0 0 1024 1024" version="1.1" xmlns="http://www.w3.org/2000/svg" p-id="581" width="200" height="200"><path d="M190.7 507.3333333l40.2 1e-8 0-26.7-40.2 1e-8L190.7 507.3333333z m307.9 80.40000001L578.99999999 587.73333331l1e-8-40.2-80.4 0 0 40.2z m107.1 0l80.4 0 0-40.2-80.4 0 0 40.2z m107.20000001 0l80.39999999 0 0-40.2-80.4 0 1e-8 40.2z m107.09999999 0s35.3 0.9 53.6-13.4c14.6-11.4 13.4-26.8 13.4-26.8l-67 0 0 40.2z m-656.10000001-133.90000001L927.10000001 453.8333333S994 483.63333331 994 547.53333331c0 41.4-66.9 66.9-66.9 66.89999999l-896.99999999 1e-8c109.5-28.40000001 133.8-160.6 133.79999998-160.60000001z m575.70000001 415.00000001l-40.2 0 0-66.9 84.79999999 0-44.59999999 66.9z m-200.9-26.8l-120.50000001 12.7c-22.5 2.6-35.2-16.9-35.19999999-16.9l-26.5-36L538.7 801.83333331l0 40.2z m-200.7-174l-1e-8 26.8L833.3 694.83333332l0-26.80000001L338 668.03333331z m147.2 66.9L806.6 734.93333331l0-26.7-321.3 0 0 26.7-0.1 0z m66.99999999 40.2L766.39999999 775.13333331 766.4 748.33333331l-214.2 0-1e-8 26.8z m240.90000001 13.3L346 788.43333331 217.4 641.33333331 900.2 641.33333331l-107.1 147.1z" p-id="582"></path></svg>